<svg id="_404" data-name="404" xmlns="http://www.w3.org/2000/svg" xmlns:xlink="http://www.w3.org/1999/xlink" viewBox="0 0 725.89 1143.61"><defs><style>.cls-1{fill:#c5403f;}.cls-2{fill:#4c4cff;}.cls-3{fill:#172c59;}.cls-4{fill:#2f2f37;}.cls-5{clip-path:url(#clip-path);}.cls-6{fill:#ea8088;}.cls-7{clip-path:url(#clip-path-2);}.cls-8{fill:#fff;}.cls-9{fill:#8585ad;}.cls-10{clip-path:url(#clip-path-3);}.cls-11{clip-path:url(#clip-path-4);}.cls-12{fill:#d1d3d4;}.cls-13{fill:#3cc5f0;}.cls-14{fill:#f7941d;}</style><clipPath id="clip-path" transform="translate(-3.86 -4.11)"><circle class="cls-1" cx="307.59" cy="198.68" r="36.99" transform="translate(21.92 427.76) rotate(-71.59)"/></clipPath><clipPath id="clip-path-2" transform="translate(-3.86 -4.11)"><circle class="cls-1" cx="421.22" cy="198.68" r="36.99" transform="translate(-17.12 356.04) rotate(-45)"/></clipPath><clipPath id="clip-path-3" transform="translate(-3.86 -4.11)"><rect class="cls-2" x="241.33" y="333.65" width="246.16" height="345.78" rx="21.38"/></clipPath><clipPath id="clip-path-4" transform="translate(-3.86 -4.11)"><path class="cls-3" d="M285.35,333.65H437.91a0,0,0,0,1,0,0v122a76.28,76.28,0,0,1-76.28,76.28h0a76.28,76.28,0,0,1-76.28-76.28v-122A0,0,0,0,1,285.35,333.65Z"/></clipPath></defs><ellipse class="cls-4" cx="360.54" cy="1116.43" rx="281.14" ry="27.18"/><rect class="cls-1" x="316.01" y="300.11" width="86.53" height="29.43"/><rect class="cls-2" x="233.74" y="125.04" width="253.61" height="175.07" rx="18.09"/><circle class="cls-3" cx="307.59" cy="198.68" r="42.71" transform="translate(1.71 401.62) rotate(-67.29)"/><circle class="cls-1" cx="307.59" cy="198.68" r="36.99" transform="translate(18.06 423.65) rotate(-71.59)"/><g class="cls-5"><rect class="cls-6" x="302.19" y="151.97" width="22.87" height="85.21"/><rect class="cls-6" x="284.7" y="151.97" width="12.58" height="85.21"/></g><circle class="cls-3" cx="421.22" cy="198.68" r="42.71" transform="translate(85.27 521.09) rotate(-69.77)"/><circle class="cls-1" cx="421.22" cy="198.68" r="36.99" transform="translate(-20.98 351.93) rotate(-45)"/><g class="cls-7"><rect class="cls-6" x="394.9" y="151.89" width="19.61" height="91.59"/><rect class="cls-6" x="419.1" y="152.81" width="8.37" height="91.59"/><rect class="cls-6" x="430.6" y="152.89" width="8.37" height="91.59"/></g><rect class="cls-8" x="306.57" y="253.41" width="107.94" height="30.14" rx="5.73"/><rect class="cls-3" x="316.01" y="253.41" width="5.07" height="30.14"/><rect class="cls-3" x="328.01" y="253.41" width="5.07" height="30.14"/><rect class="cls-3" x="340.01" y="253.41" width="5.07" height="30.14"/><rect class="cls-3" x="352.01" y="253.41" width="5.07" height="30.14"/><rect class="cls-3" x="364.01" y="253.41" width="5.07" height="30.14"/><rect class="cls-3" x="376.01" y="253.41" width="5.07" height="30.14"/><rect class="cls-3" x="388.01" y="253.41" width="5.07" height="30.14"/><rect class="cls-3" x="400.01" y="253.41" width="5.07" height="30.14"/><rect class="cls-9" x="283.55" y="106.05" width="153.99" height="18.99"/><rect class="cls-3" x="208.19" y="157.58" width="25.55" height="103.72"/><rect class="cls-3" x="487.34" y="160.72" width="25.55" height="103.72"/><rect class="cls-2" x="237.46" y="329.54" width="246.16" height="345.78" rx="21.38"/><g class="cls-10"><rect class="cls-9" x="223.67" y="611.81" width="273.36" height="89.55"/></g><path class="cls-3" d="M281.49,329.54H434a0,0,0,0,1,0,0v122a76.28,76.28,0,0,1-76.28,76.28h0a76.28,76.28,0,0,1-76.28-76.28v-122A0,0,0,0,1,281.49,329.54Z"/><g class="cls-11"><rect class="cls-12" x="315.07" y="384.65" width="12" height="69.29"/><rect class="cls-12" x="339.07" y="384.65" width="12" height="69.29"/><rect class="cls-12" x="363.08" y="384.65" width="12" height="69.29"/><rect class="cls-12" x="387.08" y="384.65" width="12" height="69.29"/></g><rect class="cls-3" x="266.74" y="675.33" width="39.83" height="315.75"/><rect class="cls-3" x="414.13" y="675.33" width="39.83" height="315.75"/><circle class="cls-2" cx="290.52" cy="823.56" r="35.14" transform="translate(-291.22 164.69) rotate(-22)"/><circle class="cls-2" cx="437.91" cy="827.73" r="35.14" transform="translate(-416.41 431.67) rotate(-37.38)"/><path class="cls-2" d="M310.43,1120.54h-82.9l24.24-109.13A20.71,20.71,0,0,1,272,995.19h38.44Z" transform="translate(-3.86 -4.11)"/><path class="cls-3" d="M310.43,1120.54h-101A38.53,38.53,0,0,1,248,1082h62.43Z" transform="translate(-3.86 -4.11)"/><rect class="cls-12" x="225.49" y="1100.35" width="14.07" height="16.07"/><rect class="cls-12" x="248.5" y="1100.35" width="14.07" height="16.07"/><rect class="cls-12" x="270.19" y="1100.35" width="14.07" height="16.07"/><path class="cls-2" d="M418,1120.54h82.9l-24.24-109.13a20.7,20.7,0,0,0-20.22-16.22H418Z" transform="translate(-3.86 -4.11)"/><path class="cls-3" d="M418,1120.54H519A38.53,38.53,0,0,0,480.42,1082H418Z" transform="translate(-3.86 -4.11)"/><rect class="cls-12" x="485" y="1104.46" width="14.07" height="16.07" transform="translate(980.22 2220.89) rotate(180)"/><rect class="cls-12" x="461.99" y="1104.46" width="14.07" height="16.07" transform="translate(934.19 2220.89) rotate(180)"/><rect class="cls-12" x="440.3" y="1104.46" width="14.07" height="16.07" transform="translate(890.8 2220.89) rotate(180)"/><rect class="cls-12" x="279.26" y="885.41" width="14.79" height="105.67"/><rect class="cls-12" x="426.65" y="885.41" width="14.79" height="105.67"/><rect class="cls-12" x="279.45" y="675.33" width="14.79" height="21.15"/><rect class="cls-12" x="426.84" y="675.33" width="14.79" height="21.15"/><polygon class="cls-3" points="237.46 348.43 208.19 348.43 167.9 348.43 167.9 418.79 167.9 419.29 181.66 419.29 181.66 567.84 194.43 567.03 194.43 419.29 237.46 419.29 237.46 348.43"/><rect class="cls-12" x="181.66" y="394.38" width="12.77" height="24.91"/><circle class="cls-2" cx="187.44" cy="574.49" r="19.54"/><polygon class="cls-3" points="483.62 348.43 512.9 348.43 553.18 348.43 553.18 418.79 553.18 419.29 539.43 419.29 539.43 567.84 526.65 567.03 526.65 419.29 483.62 419.29 483.62 348.43"/><rect class="cls-12" x="530.51" y="398.49" width="12.77" height="24.91" transform="translate(1069.94 817.78) rotate(180)"/><circle class="cls-2" cx="533.65" cy="574.49" r="19.54"/><path class="cls-12" d="M160.36,532.72,529.53,641.28a89.34,89.34,0,0,0,165.69,42.11l-57,1.28a38.33,38.33,0,0,1-38.75-32.49h0A38.34,38.34,0,0,1,636.15,608l66.31-2.09A89.34,89.34,0,0,0,546,585.41L176.79,476.85a89.35,89.35,0,0,0-165.7-42.12l57-1.28a38.34,38.34,0,0,1,38.76,32.49h0A38.34,38.34,0,0,1,70.17,510.1L3.86,512.19a89.34,89.34,0,0,0,156.5,20.53Z" transform="translate(-3.86 -4.11)"/><path class="cls-8" d="M201.2,514.38h0a12.24,12.24,0,0,1,15.2-8.29l262,77a12.23,12.23,0,0,1,8.29,15.19h0a12.23,12.23,0,0,1-15.19,8.29l-262-77A12.25,12.25,0,0,1,201.2,514.38Z" transform="translate(-3.86 -4.11)"/><path class="cls-3" d="M265,469.64h0a19.81,19.81,0,0,0-26.1,10.18l-19.46,44.35,9.34,4.09-39,44.49a6.39,6.39,0,0,0,.59,9h0a6.37,6.37,0,0,0,9-.59L241,533.65l14.67,6.44,19.46-44.35A19.81,19.81,0,0,0,265,469.64Z" transform="translate(-3.86 -4.11)"/><polygon class="cls-2" points="215.55 520.05 251.83 535.98 256.51 525.3 220.44 508.91 215.55 520.05"/><line class="cls-13" x1="503.07" y1="581.17" x2="489.78" y2="582.87"/><path class="cls-3" d="M525.17,634.86l-32.7,3-3.62-39.42A16.42,16.42,0,0,1,503.7,580.6h0a16.41,16.41,0,0,1,17.85,14.85Z" transform="translate(-3.86 -4.11)"/><rect class="cls-2" x="491.96" y="626.72" width="32.84" height="9.66" transform="translate(-59.55 45.09) rotate(-5.25)"/><path class="cls-3" d="M510.17,651h0a6.68,6.68,0,0,1-7.26-6l-.74-8,13.31-1.22.74,8A6.69,6.69,0,0,1,510.17,651Z" transform="translate(-3.86 -4.11)"/><rect class="cls-3" x="352.01" y="30.11" width="14.53" height="75.94"/><circle class="cls-1" cx="359.06" cy="22.02" r="22.02"/><circle class="cls-6" cx="367.87" cy="19.08" r="12" transform="translate(261.34 368.74) rotate(-76.79)"/><rect class="cls-6" x="220.96" y="171.39" width="12.78" height="12.78"/><rect class="cls-6" x="220.96" y="192.5" width="12.78" height="12.78"/><rect class="cls-6" x="220.96" y="213.61" width="12.78" height="12.78"/><rect class="cls-6" x="220.96" y="234.72" width="12.78" height="12.78"/><rect class="cls-6" x="487.25" y="174.53" width="12.78" height="12.78"/><rect class="cls-6" x="487.25" y="195.64" width="12.78" height="12.78"/><rect class="cls-6" x="487.25" y="216.75" width="12.78" height="12.78"/><rect class="cls-6" x="487.25" y="237.85" width="12.78" height="12.78"/><polygon class="cls-14" points="563.03 283.55 638.52 182.5 641.16 237.85 725.89 180.92 621.97 291.04 623.31 231.56 563.03 283.55"/><polygon class="cls-14" points="173.57 685.9 33.83 819.45 113.04 794.53 27.99 914.73 202.68 752.45 141.02 758.28 173.57 685.9"/><polygon class="cls-14" points="167.9 311.27 141.61 215.28 121.17 249.64 83.09 183.72 112.81 308.14 134.18 265.43 167.9 311.27"/><polygon class="cls-14" points="505.82 746.62 523.08 809.62 536.48 787.06 561.47 830.33 541.97 748.67 527.95 776.7 505.82 746.62"/></svg>